HIERARCHY
ROOT pelvis
{
  OFFSET 0 100 0
  CHANNELS 6 Xposition Yposition Zposition Zrotation Xrotation Yrotation
  JOINT pelvis_right_femur
  {
    OFFSET -10.78128 -3.44521 -0.5502486
    CHANNELS 3 Zrotation Xrotation Yrotation
    JOINT right_femur_tibia
    {
      OFFSET -0.8047443 -44.0398 -0.1307829
      CHANNELS 3 Zrotation Xrotation Yrotation
      JOINT right_tibia_foot
      {
        OFFSET 3.006224 -47.83518 -5
        CHANNELS 3 Zrotation Xrotation Yrotation
        End Site
        {
          OFFSET 0 -5 15
        }
      }
    }
  }
  JOINT pelvis_left_femur
  {
    OFFSET 10.78128 -3.44521 -0.5502486
    CHANNELS 3 Zrotation Xrotation Yrotation
    JOINT left_femur_tibia
    {
      OFFSET 0.8047443 -44.0398 -0.1307829
      CHANNELS 3 Zrotation Xrotation Yrotation
      JOINT left_tibia_foot
      {
        OFFSET -4.370144 -48.10324 -4.275266
        CHANNELS 3 Zrotation Xrotation Yrotation
        End Site
        {
          OFFSET 0 -5 15
        }
      }
    }
  }
  JOINT pelvis_spine1
  {
    OFFSET 0 6.468898 -3.129235
    CHANNELS 3 Zrotation Xrotation Yrotation
    JOINT spine1
    {
      OFFSET 0 23.15396 4.99043
      CHANNELS 3 Zrotation Xrotation Yrotation
      JOINT spine2
      {
        OFFSET 0 20.79997 -5.064912
        CHANNELS 3 Zrotation Xrotation Yrotation
        JOINT neck
        {
          OFFSET 0 14.38658 9.616178
          CHANNELS 3 Zrotation Xrotation Yrotation
          End Site
          {
            OFFSET 0 20 0
          }
        }
      }
      JOINT right_manubrium
      {
        OFFSET -5.722621 16.35077 3.967754
        CHANNELS 3 Zrotation Xrotation Yrotation
        JOINT right_clavicle
        {
          OFFSET -13.16364 1.694482 -4.693211
          CHANNELS 3 Zrotation Xrotation Yrotation
          JOINT right_humerus
          {
            OFFSET -28.5034 -0.3100689 -2.792744
            CHANNELS 3 Zrotation Xrotation Yrotation
            JOINT right_radius
            {
              OFFSET -25.15693 0.02248979 -1.271978
              CHANNELS 3 Zrotation Xrotation Yrotation
              End Site
              {
                OFFSET -15 0 0
              }
            }
          }
        }
      }
      JOINT left_manubrium
      {
        OFFSET 5.722621 16.35077 3.967754
        CHANNELS 3 Zrotation Xrotation Yrotation
        JOINT left_clavicle
        {
          OFFSET 13.16364 1.694482 -4.693211
          CHANNELS 3 Zrotation Xrotation Yrotation
          JOINT left_humerus
          {
            OFFSET 29.39168 -1.063119 -2.237045
            CHANNELS 3 Zrotation Xrotation Yrotation
            JOINT left_radius
            {
              OFFSET 24.59957 -0.9528479 0.9047498
              CHANNELS 3 Zrotation Xrotation Yrotation
              End Site
              {
                OFFSET 15 -0 -0
              }
            }
          }
        }
      }
    }
  }
}
MOTION
Frames: 7
Frame Time: 0.0416666666667
-352.7126 101.9859 480.3948 -15.50855 1.65412 -91.59513 7.348728 11.87616 -2.996911 -0 15.07984 -0 -13.53952 -4.718125 -4.186952 -0.1855103 -5.150323 -9.155752 -0 27.60794 -0 -2.952181 -6.980034 19.09911 2.846457 -1.918468 3.433095 -1.766861 12.44356 -2.361835 5.121997 26.65535 0.04457346 -2.628352 -18.71873 7.914282 -11.96195 -24.85463 8.794248 101.0628 -2.214651 -9.754948 -0 0 13.5294 -24.55403 7.532345 17.13014 3.803656 -19.69681 -7.955804 -96.51479 24.48257 25.19603 0 0 -9.726336 -1.977524 21.38491 16.11952
-358.3735 101.9879 480.0782 -15.47996 1.909925 -92.51999 7.347802 11.87413 -2.997743 -0 15.08156 -0 -13.54014 -4.715328 -4.186429 -0.1867796 -5.147359 -9.156359 -0 27.60722 -0 -2.953181 -6.981747 19.09863 2.846034 -1.918065 3.43266 -1.767002 12.44263 -2.361495 5.122014 26.65625 0.04485689 -2.628006 -18.71857 7.914277 -11.96251 -24.85321 8.793997 101.0639 -2.215961 -9.755694 -0 0 13.52672 -24.55306 7.529189 17.12925 3.804184 -19.69698 -7.955969 -96.51417 24.48402 25.19378 0 0 -9.727118 -1.977729 21.38455 16.11984
-364.0286 101.99 479.6668 -15.44728 2.165162 -93.4449 7.346925 11.8717 -2.998561 -0 15.08314 -0 -13.54068 -4.712234 -4.185954 -0.1880685 -5.144111 -9.156827 -0 27.60717 -0 -2.954094 -6.983458 19.09803 2.845619 -1.917737 3.432256 -1.767123 12.44185 -2.361266 5.121994 26.65709 0.04516729 -2.627639 -18.71843 7.914232 -11.96307 -24.85181 8.793816 101.0651 -2.217363 -9.75674 -0 0 13.5239 -24.55226 7.526206 17.12832 3.804689 -19.69739 -7.956251 -96.51334 24.48535 25.19138 0 0 -9.728417 -1.977871 21.38416 16.12013
-369.6761 101.9922 479.1607 -15.41049 2.419781 -94.3699 7.346121 11.86893 -2.999342 -0 15.08454 -0 -13.54113 -4.708942 -4.18554 -0.1893384 -5.140683 -9.157146 -0 27.60779 -0 -2.954896 -6.985117 19.09735 2.845223 -1.917491 3.431894 -1.767221 12.44125 -2.361152 5.121937 26.65782 0.04549481 -2.627264 -18.71831 7.914149 -11.9636 -24.85047 8.79371 101.0664 -2.218814 -9.758047 -0 0 13.52104 -24.55162 7.523478 17.12737 3.805156 -19.69801 -7.956637 -96.51234 24.48654 25.18891 0 0 -9.730182 -1.977948 21.38374 16.12039
-375.3145 101.9945 478.5601 -15.36961 2.673733 -95.29503 7.345412 11.86592 -3.000062 -0 15.08573 -0 -13.54148 -4.705554 -4.185199 -0.1905525 -5.137179 -9.157311 -0 27.60904 -0 -2.955565 -6.986676 19.09659 2.844859 -1.917334 3.431583 -1.767295 12.44085 -2.361154 5.121848 26.65844 0.04582934 -2.626892 -18.7182 7.914031 -11.9641 -24.84923 8.793679 101.0678 -2.220269 -9.759569 -0 0 13.51821 -24.55117 7.52108 17.12644 3.805573 -19.69883 -7.957113 -96.5112 24.48753 25.18644 0 0 -9.732349 -1.977959 21.38331 16.12059
-380.9423 101.9969 477.8651 -15.32463 2.926972 -96.22035 7.344817 11.86277 -3.000702 -0 15.08667 -0 -13.54172 -4.702173 -4.184938 -0.1916762 -5.133706 -9.15732 -0 27.61086 -0 -2.956087 -6.988092 19.0958 2.844535 -1.917266 3.431333 -1.767342 12.44064 -2.361267 5.121728 26.65893 0.04616082 -2.626532 -18.71812 7.913882 -11.96455 -24.84812 8.793723 101.0691 -2.221686 -9.761257 -0 0 13.5155 -24.55092 7.519075 17.12555 3.805929 -19.69981 -7.957664 -96.50996 24.48832 25.18405 0 0 -9.734844 -1.977906 21.38288 16.12075
-386.5579 101.9995 477.076 -15.27556 3.179449 -97.14592 7.34435 11.85956 -3.001246 -0 15.08734 -0 -13.54184 -4.698898 -4.184763 -0.1926789 -5.130365 -9.157178 -0 27.61319 -0 -2.956448 -6.989326 19.09498 2.844261 -1.917288 3.431148 -1.767362 12.44063 -2.361487 5.121583 26.65928 0.04647951 -2.626197 -18.71807 7.913709 -11.96493 -24.84718 8.793837 101.0703 -2.223024 -9.763055 -0 0 13.51299 -24.55087 7.51751 17.12473 3.806215 -19.70092 -7.958272 -96.50865 24.48888 25.1818 0 0 -9.737584 -1.977792 21.38246 16.12085
